<?xml version="1.0" encoding="utf-8"?>
<!-- Generator: Adobe Illustrator 27.0.0, SVG Export Plug-In . SVG Version: 6.00 Build 0)  -->
<svg version="1.1" id="Layer_1" xmlns="http://www.w3.org/2000/svg" xmlns:xlink="http://www.w3.org/1999/xlink" x="0px" y="0px"
	 viewBox="0 0 512 512" style="enable-background:new 0 0 512 512;" xml:space="preserve">
<style type="text/css">
	.st0{fill:#FAA61A;}
	.st1{fill:#231F20;}
	.st2{fill:#EE3124;}
	.st3{fill:#FFFFFF;}
</style>
<g id="XMLID_1_">
	<path id="XMLID_10_" class="st0" d="M382.75,375.61c-2.95-8.98-4.07-16.28-2.53-23.72c-7.02,8.7-14.74,16.84-14.74,16.84
		s-9.12,9.54-16.28,16c1.68,9.26,3.79,15.86,7.72,23.58c2.67,5.33,5.89,9.96,8.42,13.33c1.26,1.82,2.81,3.65,3.51,4.63
		c12.63-9.26,22.6-19.09,29.19-26.67C392.29,392.87,384.99,382.63,382.75,375.61z M443.66,421.36c-8.7,11.23-19.51,22.6-31.58,33.12
		c3.65,1.54,8,2.95,13.75,4.49c6.32,1.68,10.53,2.39,15.86,2.81l5.33-27.09l2.25,4.77c2.39,5.05,5.75,7.58,11.09,8.56
		c5.75,1.12,12.07,0.28,14.17-4.35c2.11-4.77,1.12-9.96-5.19-15.16c-3.79-3.23-8.7-4.63-13.61-5.47
		C451.37,422.06,447.02,421.78,443.66,421.36z M96.3,450.83c-4.63-4.21-8.98-8.42-13.19-12.77c-5.33-5.47-9.96-11.23-14.32-16.84
		c-3.51,0.56-8,0.84-12.63,1.54c-4.91,0.84-9.82,2.39-13.61,5.47c-6.18,5.19-7.3,10.39-5.19,15.16c2.11,4.77,8.42,5.47,14.17,4.35
		c5.47-1.12,8.7-3.65,11.09-8.56l2.25-4.77l5.33,27.09c5.47-0.42,9.68-1.12,15.86-2.81c5.89-1.54,10.25-2.95,13.89-4.49L96.3,450.83
		z M113.85,398.35c6.74,7.86,14.74,15.72,23.86,23.02c1.82,1.4,3.79,2.95,5.89,4.49c0.7-0.98,1.82-2.39,3.23-4.21
		c2.53-3.37,5.61-8,8.42-13.33c3.93-7.72,6.03-13.89,7.72-23.16c-7.02-6.46-16.84-16.56-16.84-16.56s-7.16-8.14-14.17-16.84
		c1.68,7.44,0.42,14.74-2.53,23.72C127.04,382.49,120.16,392.45,113.85,398.35z M425.83,338.56
		c15.58,36.77-65.82,128.84-169.68,128.98C153,467.4,71.18,375.05,86.48,338.56c-10.39,6.74-24.7,16.14-28.91,19.93
		c-22.74,19.65,17.26,78.87,74.52,115.36c41.54,26.53,82.52,35.37,124.06,34.95c41.68,0.42,82.52-8.42,124.06-34.95
		c57.4-36.49,97.26-95.71,74.52-115.36C450.53,354.7,436.22,345.16,425.83,338.56z M72.02,488.73l-8.7-43.93
		c-2.67,3.51-6.88,5.61-11.23,6.46c-3.65,0.84-7.3,0.98-10.95-0.42c2.95,5.47,5.19,9.12,8.56,16c3.65,7.3,6.18,14.03,8.7,18.95
		c2.53,4.91,5.05,7.58,8.42,7.86C69.5,494.06,72.59,491.11,72.02,488.73z M440.01,488.73c-0.42,2.39,2.53,5.33,5.05,5.05
		c3.51-0.42,5.89-2.95,8.42-7.86c2.67-5.05,5.05-11.79,8.7-18.95c3.51-6.88,5.75-10.53,8.56-16c-3.79,1.26-7.3,1.12-10.95,0.42
		c-4.35-0.84-8.42-2.95-11.23-6.46L440.01,488.73"/>
	<path id="XMLID_26_" class="st1" d="M124.23,430.2l-14.03,18.67l3.93,2.95l5.75-8h0.28l0.28,12.91l4.63,3.37l-0.42-15.58
		l14.03-3.09l-4.35-3.37l-11.93,2.95h-0.28l5.75-7.72L124.23,430.2z M381.2,435.54l-2.67,2.25l7.02,24l3.93-2.95l-1.96-5.75
		l6.32-4.91l5.33,3.09l4.07-3.09L381.2,435.54z M383.87,441.85c0.56,0.56,1.4,0.98,2.39,1.68l3.93,2.39l-3.93,3.09l-1.4-4.63
		C384.43,443.4,384.29,442.55,383.87,441.85z M370.26,444.24l-16,10.25l1.96,3.09l5.75-3.37l10.25,16.28l4.07-2.67l-10.25-16.28
		l5.33-3.37L370.26,444.24z M143.46,446.76c-0.7,0-1.4,0.28-2.25,0.42c-2.95,0.7-5.47,2.67-7.3,5.61c-1.82,3.09-2.39,6.32-1.4,9.4
		c0.84,2.67,2.67,5.05,5.61,6.74c3.09,1.82,6.32,2.25,9.26,1.4c2.95-0.7,5.61-2.67,7.3-5.61c1.68-2.81,2.25-5.61,1.68-8.42
		c-0.56-2.95-2.53-5.75-5.75-7.72C148.23,447.33,145.71,446.62,143.46,446.76z M145.57,451.12c0.84,0.14,1.82,0.42,2.67,0.98
		c3.51,2.11,4.49,6.18,1.96,10.39c-2.67,4.35-6.74,5.19-10.25,3.09c-3.51-2.11-4.35-6.03-1.68-10.39
		C140.37,451.96,142.9,450.69,145.57,451.12z M344.15,458.83l-3.37,1.68l1.68,24.98l4.35-2.25l-0.42-6.03l7.3-3.09l4.35,4.07
		l4.63-2.25L344.15,458.83z M175.46,461.78l-1.26,3.93l6.32,2.25l-6.6,18.24l4.63,1.68l6.6-18.24l5.75,2.25l2.39-3.37L175.46,461.78
		z M345.13,465.57c0.42,0.56,1.12,1.4,1.96,2.25l3.37,3.37l-4.63,2.25l-0.28-5.05C345.42,467.11,345.27,466.41,345.13,465.57z
		 M323.8,467.54c-1.12,0.14-2.39,0.28-3.93,0.7c-7.58,2.39-10.95,8.98-8.98,15.58c1.96,6.18,7.44,9.96,14.6,7.72
		c3.65-1.12,6.6-2.95,8.42-4.91l-2.95-9.68l-4.63,1.4l2.25,7.58c-0.7,0.56-1.82,1.12-3.09,1.4c-4.63,1.4-8.42-1.26-9.68-5.61
		c-1.26-3.93-0.14-8.14,5.75-9.96c2.25-0.7,4.49-0.56,6.6-0.28l-1.26-4.07C325.91,467.54,324.92,467.4,323.8,467.54z M199.88,469.92
		l-6.03,22.6l13.05,3.37l0.98-3.65l-8.28-2.39l1.4-5.61l7.3,1.96l0.98-3.93l-7.3-1.96l1.4-5.33l7.02,1.96l2.39-3.37L199.88,469.92z
		 M300.5,474.13l-4.91,0.7l1.96,11.65c0.14,0.98,0.28,2.53,0.42,3.65c-0.84-0.84-1.54-1.68-2.67-2.67l-11.37-10.67l-4.91,0.7
		l3.65,23.02l4.63-0.7l-1.96-12.63c-0.14-0.98-0.28-2.67-0.42-3.37c0.84,0.84,1.68,1.96,2.67,2.95l11.93,11.09l4.63-0.7
		L300.5,474.13z M229.21,476.52l-0.42,3.93l6.74,0.7l-1.96,19.09l4.91,0.42l1.96-19.09l6.32,0.7l1.4-3.93L229.21,476.52z
		 M260.51,477.92l-8.7,23.58h4.91l1.96-5.75h8l2.39,5.61h5.05l-9.96-23.3h-3.65V477.92z M262.47,484.52
		c0.14,0.7,0.56,1.54,0.98,2.67l1.68,4.63h-5.05l1.68-4.63C262.05,486.06,262.33,485.36,262.47,484.52z"/>
	<path id="XMLID_37_" class="st1" d="M385.69,339.82c4.49-7.58,10.25-13.33,19.93-13.75c5.61-0.14,9.4,0.7,14.03,4.07
		c0.7,0.56,32.42,21.19,37.47,25.54c14.6,12.63,7.44,37.05-11.09,62.31c3.09,0.42,6.74,0.7,10.39,1.26
		c5.19,0.84,10.81,2.53,15.3,6.18c7.3,6.03,8.84,12.07,5.61,20.21c-4.35,8.84-7.44,13.47-12.07,22.6c-3.65,7.3-6.18,14.03-8.7,19.09
		c-2.67,5.05-5.89,9.26-11.23,9.82c-4.35,0.42-9.82-4.07-8.84-9.26l4.49-23.02c-5.47-0.42-9.82-1.12-16.14-2.81
		c-6.74-1.82-11.51-3.37-15.86-5.33c-8.56,7.16-17.54,13.89-26.95,19.79c-42.24,26.95-83.79,35.93-126.03,35.37
		c-42.24,0.42-83.79-8.56-126.03-35.37c-9.4-5.89-18.53-12.63-26.95-19.93c-4.35,1.96-9.26,3.51-16,5.47
		c-6.32,1.68-10.67,2.39-16.14,2.81l4.49,23.02c0.98,5.19-4.49,9.68-8.84,9.26c-5.33-0.56-8.56-4.63-11.23-9.82
		c-2.67-5.05-5.05-11.79-8.7-19.09c-4.63-9.12-7.86-13.75-12.07-22.6c-3.23-8.14-1.54-14.32,5.61-20.21
		c4.49-3.79,10.1-5.33,15.3-6.18c3.79-0.7,7.58-0.84,10.67-1.26c-18.53-25.26-25.68-49.68-11.09-62.31
		c6.03-5.19,30.31-20.91,38.73-26.24c4.21-2.81,8-3.65,13.19-3.37c9.54,0.28,15.3,6.03,19.79,13.47
		c7.86,10.95,21.89,26.81,21.89,26.81s10.25,10.67,17.26,16.98l0.56,1.54c-1.82,10.1-3.93,16.7-8.28,24.98
		c-2.81,5.47-6.03,10.39-8.7,13.89c-1.26,1.68-2.25,3.23-2.95,4.35c28.49,20.35,65.96,35.65,109.61,35.79
		c43.65,0,81.4-15.3,109.89-35.65c-0.98-1.12-2.25-2.81-3.51-4.49c-2.53-3.51-5.89-8.42-8.7-13.89c-4.21-8.28-6.46-15.02-8.28-24.98
		l0.56-1.54c7.02-6.32,17.26-16.98,17.26-16.98s14.03-15.86,21.89-26.81L385.69,339.82z M426.25,338.7c0.42,1.26,0.7,2.53,0.98,3.79
		c8.7,39.02-70.59,124.91-170.94,125.05C153.14,467.4,71.32,375.05,86.62,338.56c-10.39,6.74-24.7,16.14-28.91,19.93
		c-22.74,19.65,17.26,78.87,74.52,115.36c41.54,26.53,82.52,35.37,124.06,34.95c41.68,0.42,82.52-8.42,124.06-34.95
		c57.4-36.49,97.26-95.71,74.52-115.36C450.53,354.7,436.5,345.44,426.25,338.7z M413.9,377.57c-2.53-3.51-7.44-5.19-12.07-5.47
		c-5.33-0.28-11.23,1.4-13.75,5.19c2.39,6.74,8,14.17,12.91,18.81C406.18,389.78,410.53,383.61,413.9,377.57z M124.79,377.57
		c-2.67-3.93-8.56-5.61-13.89-5.33c-4.77,0.14-9.68,1.82-12.07,5.33c3.37,5.89,7.72,12.07,12.77,18.24
		C116.65,390.91,121.99,383.47,124.79,377.57z M382.75,375.61c-2.95-8.98-4.07-16.28-2.53-23.72c-7.02,8.7-14.74,16.84-14.74,16.84
		s-9.12,9.54-16.28,16c1.68,9.26,3.79,15.86,7.72,23.58c2.67,5.33,5.89,9.96,8.42,13.33c1.26,1.82,2.81,3.65,3.51,4.63
		c12.63-9.26,22.6-19.09,29.19-26.67C392.29,392.87,384.99,382.63,382.75,375.61z M443.66,421.36c-8.7,11.23-19.51,22.6-31.58,33.12
		c3.65,1.54,8,2.95,13.75,4.49c6.32,1.68,10.53,2.39,15.86,2.81l5.33-27.09l2.25,4.77c2.39,5.05,5.75,7.58,11.09,8.56
		c5.75,1.12,12.07,0.28,14.17-4.35c2.11-4.77,1.12-9.96-5.19-15.16c-3.79-3.23-8.7-4.63-13.61-5.47
		C451.37,422.06,447.02,421.78,443.66,421.36z M96.3,450.83c-4.63-4.21-8.98-8.42-13.19-12.77c-5.33-5.47-9.96-11.23-14.32-16.84
		c-3.51,0.56-8,0.84-12.63,1.54c-4.91,0.84-9.82,2.39-13.61,5.47c-6.18,5.19-7.3,10.39-5.19,15.16c2.11,4.77,8.42,5.47,14.17,4.35
		c5.47-1.12,8.7-3.65,11.09-8.56l2.25-4.77l5.33,27.09c5.47-0.42,9.68-1.12,15.86-2.81c5.89-1.54,10.25-2.95,13.89-4.49L96.3,450.83
		z M113.85,398.35c6.74,7.86,14.74,15.72,23.86,23.02c1.82,1.4,3.79,2.95,5.89,4.49c0.7-0.98,1.82-2.39,3.23-4.21
		c2.53-3.37,5.61-8,8.42-13.33c3.93-7.72,6.03-13.89,7.72-23.16c-7.02-6.46-16.84-16.56-16.84-16.56s-7.16-8.14-14.17-16.84
		c1.68,7.44,0.42,14.74-2.53,23.72C127.04,382.49,120.16,392.45,113.85,398.35z M72.02,488.73l-8.7-43.93
		c-2.67,3.51-6.88,5.61-11.23,6.46c-3.65,0.84-7.3,0.98-10.95-0.42c2.95,5.47,5.19,9.12,8.56,16c3.65,7.3,6.18,14.03,8.7,18.95
		c2.53,4.91,5.05,7.58,8.42,7.86C69.5,494.06,72.59,491.11,72.02,488.73z M440.01,488.73c-0.42,2.39,2.53,5.33,5.05,5.05
		c3.51-0.42,5.89-2.95,8.42-7.86c2.67-5.05,5.05-11.79,8.7-18.95c3.51-6.88,5.75-10.53,8.56-16c-3.79,1.26-7.3,1.12-10.95,0.42
		c-4.35-0.84-8.42-2.95-11.23-6.46L440.01,488.73"/>
	<path id="XMLID_38_" class="st0" d="M439.16,3.42v193.96c0,0,0.84,17.4-6.18,44.49c-7.02,27.37-21.75,64.7-52.91,104.56
		c-24,30.74-55.16,55.58-80.42,72.84c-22.31,15.16-39.86,24.42-43.65,26.38c-3.93-1.96-22.6-11.23-46.03-27.23
		c-26.53-18.1-59.08-44.77-83.65-79.15c-25.12-35.23-38.45-72.28-45.33-100.35c-6.88-28.07-7.44-47.3-7.44-47.3V3.42H439.16"/>
	<path id="XMLID_39_" class="st1" d="M116.37,46.5h280.27v149.05c0,0,0,52.63-41.96,114.24c-36.07,53.05-98.52,86.45-98.52,86.45
		s-69.05-41.26-103.29-95.43c-38.31-60.63-36.63-114.24-36.63-114.24V46.5"/>
	<path id="XMLID_42_" class="st1" d="M442.67-0.09v197.32c0,0.28,3.23,70.59-59.79,151.29c-48.56,62.17-126.73,100.91-126.73,100.91
		s-21.19-9.96-48-28.21c-26.67-18.24-59.65-45.19-84.49-80C72.73,269.79,70.2,191.62,70.2,191.48V-0.09H442.67z M439.16,3.42H73.71
		v188.06c0,0,0.56,19.23,7.44,47.3c6.88,28.21,20.07,65.12,45.33,100.35c24.56,34.38,57.12,61.05,83.65,79.15
		c23.44,16,42.1,25.26,46.03,27.23c3.79-1.96,21.33-11.09,43.65-26.38c25.26-17.26,56.42-42.1,80.42-72.84
		c31.16-39.86,45.89-77.19,52.91-104.56c6.88-27.23,6.18-44.49,6.18-44.49V3.42"/>
	<path id="XMLID_45_" class="st2" d="M272.72,11.14c-17.82,11.79-38.59,22.88-60.49,26.81c-34.1,6.18-20.91-15.58-4.07-16.56
		c11.93-0.7,9.4,7.72,2.53,9.68c14.17-3.65,22.17-6.18,34.1-12.63h-40.7c-10.53,0.14-22.88,1.4-32.84,4.35
		c8-1.12,15.72,6.46,3.23,11.23c-17.68,6.74-43.65-9.54-5.61-18.95c10.67-2.67,23.86-3.79,34.81-3.93L272.72,11.14z M239.74,38.36
		c17.82-11.79,38.59-22.88,60.49-26.81c34.1-6.18,20.91,15.58,4.07,16.56c-11.93,0.7-9.4-7.72-2.53-9.68
		c-14.17,3.65-22.17,6.18-34.1,12.63h40.7c10.53-0.14,22.88-1.4,32.84-4.35c-8,1.12-15.72-6.46-3.23-11.23
		c17.68-6.74,43.65,9.54,5.61,18.95c-10.67,2.67-23.86,3.79-34.81,3.93L239.74,38.36z"/>
	<path id="XMLID_46_" class="st0" d="M111.6,349.37c-0.42,2.11-2.25,3.79-4.49,3.79c-2.53,0-4.49-1.96-4.49-4.49
		c0-1.12,0.42-2.11,0.98-2.95c0.7-0.7,1.54-1.26,2.53-1.54c3.09-0.84,7.3,0.28,9.68,4.21c3.23,5.33-0.14,12.91-6.18,15.3
		c-6.6,2.53-19.51-0.7-20.91-14.17c-0.98-8.98,2.25-14.46,8.14-17.82c7.58-4.07,23.3-2.25,26.38,11.93l-0.56,0.28
		c-7.3-9.26-15.86-9.4-21.19-6.6c-7.44,3.93-7.02,13.05-3.93,17.4c3.09,4.35,8,5.19,11.79,2.67
		C111.6,355.96,113.01,352.45,111.6,349.37z"/>
	<polygon id="XMLID_47_" class="st0" points="273,106.71 256.16,94.36 239.31,106.71 245.77,86.78 228.79,74.57 249.7,74.57 
		256.16,54.78 262.61,74.57 283.38,74.57 266.54,86.78 	"/>
	<path id="XMLID_48_" class="st2" d="M183.04,146.43h5.33V266.7h59.51c1.12-0.14,1.68-0.28,2.39-0.42c1.26-0.42,2.81-1.4,4.63-3.23
		c0.7-0.7,1.26-1.54,1.68-2.25c0.42,0.7,0.98,1.4,1.68,2.25c1.82,1.82,3.37,2.81,4.63,3.23c0.56,0.28,1.12,0.42,2.39,0.42h59.51
		V146.43h5.33v124.06h-61.33c0.42,4.77-4.49,4.35-12.07,4.35c-7.72,0-12.63,0.28-12.21-4.35h-61.47V146.43"/>
	<path id="XMLID_56_" class="st1" d="M209.56,126.22c5.05-0.14,11.37-1.12,17.26-3.65c2.39-0.98,4.35-2.67,6.88-3.93
		c2.95-1.4,6.6-2.25,12.07-1.82c4.35,0.28,7.44,2.11,9.4,3.93c0.42,0.42,0.84,0.84,1.12,1.26c0.28-0.42,0.7-0.84,1.12-1.26
		c1.96-1.82,5.05-3.51,9.4-3.93c5.47-0.42,9.12,0.56,12.07,1.82c2.67,1.26,4.49,2.81,6.88,3.93c5.89,2.53,12.07,3.37,17.26,3.65
		c4.63,0.14,9.12-0.42,9.82-0.42c0.28,1.12,0.7,3.79,4.49,6.32c2.25,1.54,7.02,4.35,7.02,4.35v130.52h-59.51
		c-1.12-0.14-1.68-0.28-2.39-0.42c-1.26-0.42-2.81-1.4-4.63-3.23c-0.7-0.7-1.26-1.4-1.68-2.11c-0.42,0.7-0.98,1.4-1.68,2.11
		c-1.82,1.82-3.37,2.81-4.63,3.23c-0.56,0.28-1.12,0.42-1.54,0.42h-60.35V136.46c0,0,4.77-2.81,7.02-4.35
		c3.79-2.53,4.21-5.19,4.49-6.32C200.44,125.8,204.93,126.36,209.56,126.22z M258.26,245.79v9.96c0,0.56,0,0.84,0.14,1.12
		c0.28,0.7,0.84,1.96,2.39,3.65c1.68,1.68,3.09,2.39,3.79,2.67h55.16l-9.4-13.61c-1.96,0.14-4.77,0.28-7.44,0.14
		c-5.05-0.14-11.79-1.12-18.24-3.93c-2.39-1.12-4.35-2.67-7.02-3.93c-2.39-1.12-5.33-1.96-10.39-1.54c-3.51,0.28-5.89,1.68-7.3,2.95
		C259.38,244.11,258.96,244.81,258.26,245.79z M197.21,135.06c-2.53,1.4-4.35,2.53-5.33,3.23v120.56l7.86-11.51V132.96
		C198.9,133.94,198.05,134.64,197.21,135.06z M193.14,263.33h55.01c1.4-0.42,2.53-1.12,4.07-2.67c1.54-1.68,2.11-2.81,2.39-3.65
		l0.14-1.12v-9.96c-0.7-0.98-1.12-1.68-1.82-2.25c-1.4-1.26-3.79-2.67-7.3-2.95c-4.91-0.42-8,0.42-10.39,1.54
		c-2.67,1.26-4.63,2.81-7.02,3.93c-6.46,2.81-13.05,3.65-18.24,3.93c-2.81,0.14-5.61,0-7.44-0.14L193.14,263.33z M254.75,240.6
		V125.52c0,0-2.39-4.77-9.4-5.19c-10.1-0.7-13.19,3.65-17.82,5.75c-10.95,4.77-24.28,3.51-24.28,3.51v116.77
		c0,0,13.75,1.26,24.28-3.93c4.49-2.25,8-6.03,17.54-5.33C251.95,237.51,254.75,240.6,254.75,240.6z M258.26,240.6
		c0,0,2.81-2.95,9.68-3.51c9.54-0.7,12.91,3.09,17.54,5.33c10.53,5.19,24.28,3.93,24.28,3.93V129.59c0,0-13.33,1.26-24.28-3.51
		c-4.63-1.96-7.72-6.46-17.82-5.75c-6.88,0.42-9.4,5.19-9.4,5.19L258.26,240.6L258.26,240.6z M315.8,135.06
		c-0.84-0.42-1.68-1.12-2.53-2.11v114.38l7.86,11.51V138.29c-0.98-0.7-2.81-1.82-4.35-2.67L315.8,135.06"/>
	<path id="XMLID_61_" class="st0" d="M197.21,135.06c-2.53,1.4-4.35,2.53-5.33,3.23v120.56l7.86-11.51V132.96
		C198.9,133.94,198.05,134.64,197.21,135.06z M315.8,135.06c2.53,1.4,4.35,2.53,5.33,3.23v120.56l-7.86-11.51V132.96
		C314.12,133.94,314.96,134.64,315.8,135.06z M319.73,263.33h-55.01c-1.4-0.42-2.53-1.12-4.07-2.67c-1.54-1.68-2.11-2.81-2.39-3.65
		l-0.14-11.23c0.7-0.98,1.12-1.68,1.82-2.25c1.4-1.26,3.79-2.67,7.3-2.95c4.91-0.42,8,0.42,10.39,1.54
		c2.67,1.26,4.63,2.81,7.02,3.93c6.32,2.81,13.05,3.65,18.24,3.93c2.81,0.14,5.61,0,7.44-0.14L319.73,263.33z M193.14,263.33h55.01
		c1.4-0.42,2.53-1.12,4.07-2.67c1.54-1.68,2.11-2.81,2.39-3.65l0.14-11.23c-0.7-0.98-1.12-1.68-1.82-2.25
		c-1.4-1.26-3.79-2.67-7.3-2.95c-4.91-0.42-8,0.42-10.39,1.54c-2.67,1.26-4.63,2.81-7.02,3.93c-6.46,2.81-13.05,3.65-18.24,3.93
		c-2.81,0.14-5.61,0-7.44-0.14L193.14,263.33"/>
	<path id="XMLID_64_" class="st3" d="M254.75,240.6V125.52c0,0-2.39-4.77-9.4-5.19c-10.1-0.7-13.19,3.65-17.82,5.75
		c-10.95,4.77-24.28,3.51-24.28,3.51v116.77c0,0,13.75,1.26,24.28-3.93c4.49-2.25,8-6.03,17.54-5.33
		C251.95,237.51,254.75,240.6,254.75,240.6z M258.26,240.6V125.52c0,0,2.39-4.77,9.4-5.19c10.1-0.7,13.19,3.65,17.82,5.75
		c10.95,4.77,24.28,3.51,24.28,3.51v116.77c0,0-13.75,1.26-24.28-3.93c-4.49-2.25-8-6.03-17.54-5.33
		C260.93,237.51,258.26,240.6,258.26,240.6"/>
	<path id="XMLID_65_" d="M208.02,143.06c0,0,5.05,1.54,13.75-0.98c7.02-2.11,10.95-5.89,16.84-6.46c5.89-0.42,11.51,0.98,11.51,0.98
		s-4.91-3.93-10.39-4.07c-7.86,0-12.35,4.07-18.95,6.6C212.51,142.22,208.02,143.06,208.02,143.06z"/>
	<path id="XMLID_66_" d="M208.02,143.06c0,0,5.05,1.54,13.75-0.98c7.02-2.11,10.95-5.89,16.84-6.46c5.89-0.42,11.51,0.98,11.51,0.98
		s-4.91-3.93-10.39-4.07c-7.86,0-12.35,4.07-18.95,6.6C212.51,142.22,208.02,143.06,208.02,143.06z"/>
	<path id="XMLID_67_" d="M208.02,154.29c0,0,5.05,1.54,13.75-0.98c7.02-2.11,10.95-5.89,16.84-6.46c5.89-0.42,11.51,0.98,11.51,0.98
		s-4.91-3.93-10.39-4.07c-7.86,0-12.35,4.07-18.95,6.6C212.51,153.45,208.02,154.29,208.02,154.29z"/>
	<path id="XMLID_68_" d="M208.02,165.51c0,0,5.05,1.54,13.75-0.98c7.02-2.11,10.95-5.89,16.84-6.46c5.89-0.42,11.51,0.98,11.51,0.98
		s-4.91-3.93-10.39-4.07c-7.86,0-12.35,4.07-18.95,6.6C212.51,164.67,208.02,165.51,208.02,165.51z"/>
	<path id="XMLID_69_" d="M208.02,176.88c0,0,5.05,1.54,13.75-0.98c7.02-2.11,10.95-5.89,16.84-6.46c5.89-0.42,11.51,0.98,11.51,0.98
		s-4.91-3.93-10.39-4.07c-7.86,0-12.35,4.07-18.95,6.6C212.51,176.04,208.02,176.88,208.02,176.88z"/>
	<path id="XMLID_70_" d="M208.02,188.11c0,0,5.05,1.54,13.75-0.98c7.02-2.11,10.95-5.89,16.84-6.46c5.89-0.42,11.51,0.98,11.51,0.98
		s-4.91-3.93-10.39-4.07c-7.86,0-12.35,4.07-18.95,6.6C212.51,187.27,208.02,188.11,208.02,188.11z"/>
	<path id="XMLID_71_" d="M208.02,199.48c0,0,5.05,1.54,13.75-0.98c7.02-2.11,10.95-5.89,16.84-6.46c5.89-0.42,11.51,0.98,11.51,0.98
		s-4.91-3.93-10.39-4.07c-7.86,0-12.35,4.07-18.95,6.6C212.51,198.5,208.02,199.48,208.02,199.48z"/>
	<path id="XMLID_72_" d="M208.02,210.71c0,0,5.05,1.54,13.75-0.98c7.02-2.11,10.95-5.89,16.84-6.46c5.89-0.42,11.51,0.98,11.51,0.98
		s-4.91-3.93-10.39-4.07c-7.86,0-12.35,4.07-18.95,6.6C212.51,209.86,208.02,210.71,208.02,210.71z"/>
	<path id="XMLID_73_" d="M208.02,221.93c0,0,5.05,1.54,13.75-0.98c7.02-2.11,10.95-5.89,16.84-6.46c5.89-0.42,11.51,0.98,11.51,0.98
		s-4.91-3.93-10.39-4.07c-7.86,0-12.35,4.07-18.95,6.6C212.51,221.09,208.02,221.93,208.02,221.93z"/>
	<path id="XMLID_74_" d="M208.02,233.3c0,0,5.05,1.54,13.75-0.98c7.02-2.11,10.95-5.89,16.84-6.46c5.89-0.42,11.51,0.98,11.51,0.98
		s-4.91-3.93-10.39-4.07c-7.86,0-12.35,4.07-18.95,6.6C212.51,232.32,208.02,233.3,208.02,233.3z"/>
	<path id="XMLID_75_" d="M304.72,143.06c0,0-5.05,1.54-13.75-0.98c-7.02-2.11-10.95-5.89-16.84-6.46
		c-5.89-0.42-11.51,0.98-11.51,0.98s4.91-3.93,10.39-4.07c7.86,0,12.35,4.07,18.95,6.6C300.36,142.22,304.72,143.06,304.72,143.06z"
		/>
	<path id="XMLID_76_" d="M304.72,154.29c0,0-5.05,1.54-13.75-0.98c-7.02-2.11-10.95-5.89-16.84-6.46
		c-5.89-0.42-11.51,0.98-11.51,0.98s4.91-3.93,10.39-4.07c7.86,0,12.35,4.07,18.95,6.6C300.36,153.45,304.72,154.29,304.72,154.29z"
		/>
	<path id="XMLID_77_" d="M304.72,165.51c0,0-5.05,1.54-13.75-0.98c-7.02-2.11-10.95-5.89-16.84-6.46
		c-5.89-0.42-11.51,0.98-11.51,0.98s4.91-3.93,10.39-4.07c7.86,0,12.35,4.07,18.95,6.6C300.36,164.67,304.72,165.51,304.72,165.51z"
		/>
	<path id="XMLID_78_" d="M304.72,176.88c0,0-5.05,1.54-13.75-0.98c-7.02-2.11-10.95-5.89-16.84-6.46
		c-5.89-0.42-11.51,0.98-11.51,0.98s4.91-3.93,10.39-4.07c7.86,0,12.35,4.07,18.95,6.6C300.36,176.04,304.72,176.88,304.72,176.88z"
		/>
	<path id="XMLID_79_" d="M304.72,188.11c0,0-5.05,1.54-13.75-0.98c-7.02-2.11-10.95-5.89-16.84-6.46
		c-5.89-0.42-11.51,0.98-11.51,0.98s4.91-3.93,10.39-4.07c7.86,0,12.35,4.07,18.95,6.6C300.36,187.27,304.72,188.11,304.72,188.11z"
		/>
	<path id="XMLID_80_" d="M304.72,199.48c0,0-5.05,1.54-13.75-0.98c-7.02-2.11-10.95-5.89-16.84-6.46
		c-5.89-0.42-11.51,0.98-11.51,0.98s4.91-3.93,10.39-4.07c7.86,0,12.35,4.07,18.95,6.6C300.36,198.5,304.72,199.48,304.72,199.48z"
		/>
	<path id="XMLID_81_" d="M304.72,210.71c0,0-5.05,1.54-13.75-0.98c-7.02-2.11-10.95-5.89-16.84-6.46
		c-5.89-0.42-11.51,0.98-11.51,0.98s4.91-3.93,10.39-4.07c7.86,0,12.35,4.07,18.95,6.6C300.36,209.86,304.72,210.71,304.72,210.71z"
		/>
	<path id="XMLID_82_" d="M304.72,221.93c0,0-5.05,1.54-13.75-0.98c-7.02-2.11-10.95-5.89-16.84-6.46
		c-5.89-0.42-11.51,0.98-11.51,0.98s4.91-3.93,10.39-4.07c7.86,0,12.35,4.07,18.95,6.6C300.36,221.09,304.72,221.93,304.72,221.93z"
		/>
	<path id="XMLID_83_" d="M304.72,233.3c0,0-5.05,1.54-13.75-0.98c-7.02-2.11-10.95-5.89-16.84-6.46
		c-5.89-0.42-11.51,0.98-11.51,0.98s4.91-3.93,10.39-4.07c7.86,0,12.35,4.07,18.95,6.6C300.36,232.32,304.72,233.3,304.72,233.3z"/>
	<polyline id="XMLID_84_" class="st0" points="277.63,360.73 256.44,345.44 235.24,360.73 243.38,335.89 222.19,320.45 
		248.44,320.45 256.44,295.61 264.58,320.45 290.68,320.45 269.49,335.89 277.63,360.73 	"/>
	<polygon id="XMLID_85_" class="st0" points="381.06,215.48 364.08,203.13 347.24,215.48 353.7,195.55 336.85,183.34 357.77,183.34 
		364.08,163.55 370.54,183.34 391.45,183.34 374.61,195.55 	"/>
	<polygon id="XMLID_86_" class="st0" points="164.93,215.48 148.09,203.13 131.25,215.48 137.71,195.55 120.86,183.34 
		141.64,183.34 148.09,163.55 154.55,183.34 175.32,183.34 158.48,195.55 	"/>
	<path id="XMLID_87_" class="st0" d="M400.99,349.37c0.42,2.11,2.25,3.79,4.49,3.79c2.53,0,4.49-1.96,4.49-4.49
		c0-1.12-0.42-2.11-0.98-2.95c-0.7-0.7-1.54-1.26-2.53-1.54c-3.09-0.84-7.3,0.28-9.68,4.21c-3.23,5.33,0.14,12.91,6.18,15.3
		c6.6,2.53,19.51-0.7,20.91-14.17c0.98-8.98-2.25-14.46-8.14-17.82c-7.58-4.07-23.3-2.25-26.38,11.93l0.56,0.28
		c7.3-9.26,15.86-9.4,21.19-6.6c7.44,3.93,7.02,13.05,3.93,17.4s-8,5.19-11.79,2.67C400.99,355.96,399.73,352.45,400.99,349.37z"/>
	<path id="XMLID_93_" class="st2" d="M108.37,183.76c-11.65-15.72-22.6-33.96-26.38-53.19c-6.03-30.03,15.3-18.67,16.28-3.79
		c0.7,10.53-7.58,8.42-9.4,2.39c3.51,12.49,6.18,19.51,12.49,29.89v-37.47c-0.84-9.54-1.26-14.03-4.21-22.74
		c1.12,7.02-6.46,14.03-11.23,3.23c-6.74-15.58,9.4-38.73,18.81-5.33c2.67,9.4,3.23,14.88,3.79,24.7L108.37,183.76z M134.48,331.54
		c22.31,11.93,37.47,10.95,52.91,23.16c24,19.09-0.14,24.14-10.53,13.47c-7.3-7.58,0.56-10.81,6.18-8
		c-10.67-7.3-17.68-8.7-29.19-12.63c0,0,17.68,26.67,43.09,40.7c-4.91-5.19-3.93-14.74,6.6-9.4c15.16,7.58,17.26,35.93-11.09,15.86
		C154.83,367.75,134.48,331.54,134.48,331.54z M164.79,336.03c-17.54-4.91-36.35-10.53-47.02-25.4
		c-17.82-24.84,0.84-24.28,10.53-13.47c7.02,7.86-0.84,11.37-6.18,8c9.26,9.82,15.58,13.19,25.12,17.12c0,0-14.17-27.79-32.42-47.44
		c4.63,5.47,3.93,14.74-6.6,9.4c-15.16-7.58-11.37-42.24,11.09-15.86c7.58,8.98,14.17,18.53,19.79,26.53
		C150.48,311.33,158.06,324.52,164.79,336.03z M82.97,155.13c10.67,23.02,21.61,30.17,26.53,49.26
		c7.58,29.61-14.03,19.37-15.72,4.49c-1.26-10.39,6.46-8.56,8.98-2.81c-3.79-11.79-7.02-16.84-13.89-26.95
		c0,0-1.26,30.17,7.86,57.96c-0.56-7.16,7.02-16,12.35-5.33c7.44,15.16-10.95,39.72-19.93,6.18
		C78.76,199.48,82.97,155.13,82.97,155.13z M90.97,21.1c-4.21,10.81-7.02,21.61-8.14,30.45c-4.91,35.93,22.31,19.37,23.16,3.51
		c0.7-13.89-11.65-9.4-14.32-2.67c0.56-4.21,0.84-6.18,2.53-12.21c1.12-4.21,2.81-8.42,4.35-11.93c3.37-1.54,7.58-3.23,11.79-4.35
		c5.89-1.68,8-1.96,12.21-2.53c-6.74,2.81-11.23,15.16,2.67,14.32c15.86-0.84,32.42-27.93-3.51-23.16
		C112.58,13.94,101.64,16.89,90.97,21.1z"/>
	<path id="XMLID_99_" class="st2" d="M405.2,183.76c11.65-15.72,22.6-33.96,26.38-53.19c6.03-30.03-15.3-18.67-16.28-3.79
		c-0.7,10.53,7.58,8.42,9.4,2.39c-3.51,12.49-6.18,19.51-12.49,29.89v-37.47c0.84-9.54,1.26-14.03,4.21-22.74
		c-1.12,7.02,6.46,14.03,11.23,3.23c6.74-15.58-9.4-38.73-18.81-5.33c-2.67,9.4-3.23,14.88-3.79,24.7L405.2,183.76z M379.1,331.54
		c-22.31,11.93-37.47,10.95-52.91,23.16c-24,19.09,0.14,24.14,10.53,13.47c7.3-7.58-0.56-10.81-6.18-8
		c10.67-7.3,17.68-8.7,29.19-12.63c0,0-17.68,26.67-43.09,40.7c4.91-5.19,3.93-14.74-6.6-9.4c-15.16,7.58-17.26,35.93,11.09,15.86
		C358.89,367.75,379.1,331.54,379.1,331.54z M348.78,336.03c17.54-4.91,36.35-10.53,47.02-25.4c17.82-24.84-0.84-24.28-10.53-13.47
		c-7.02,7.86,0.84,11.37,6.18,8c-9.26,9.82-15.58,13.19-25.12,17.12c0,0,14.17-27.79,32.42-47.44c-4.63,5.47-3.93,14.74,6.6,9.4
		c15.16-7.58,11.37-42.24-11.09-15.86c-7.58,8.98-14.17,18.53-19.79,26.53C363.24,311.33,355.66,324.52,348.78,336.03z
		 M430.74,155.13c-10.67,23.02-21.61,30.17-26.53,49.26c-7.58,29.61,14.03,19.37,15.72,4.49c1.26-10.39-6.46-8.56-8.98-2.81
		c3.79-11.79,7.02-16.84,13.89-26.95c0,0,1.26,30.17-7.86,57.96c0.56-7.16-7.02-16-12.35-5.33c-7.44,15.16,10.95,39.72,19.93,6.18
		C434.81,199.48,430.74,155.13,430.74,155.13z M422.74,21.1c4.21,10.81,7.02,21.61,8.14,30.45c4.91,35.93-22.31,19.37-23.16,3.51
		c-0.7-13.89,11.65-9.4,14.32-2.67c-0.56-4.21-0.84-6.18-2.53-12.21c-1.12-4.21-2.81-8.42-4.35-11.93
		c-3.37-1.54-7.58-3.23-11.79-4.35c-5.89-1.68-8-1.96-12.21-2.53c6.74,2.81,11.23,15.16-2.67,14.32
		c-15.86-0.84-32.42-27.93,3.51-23.16C400.99,13.94,411.94,16.89,422.74,21.1z"/>
	<path id="XMLID_100_" class="st2" d="M256.3,434.98c10.53-4.63,19.51-9.82,26.53-15.3c28.91-22.03-2.81-30.17-13.89-18.81
		c-9.54,9.82,0.98,14.03,9.12,11.23c0,0-5.75,3.93-11.37,7.3c-3.51,2.11-7.44,4.07-10.53,5.47c-3.09-1.4-6.88-3.51-10.53-5.47
		c-5.61-3.23-11.37-7.3-11.37-7.3c8.28,2.95,18.81-1.4,9.12-11.23c-11.09-11.37-42.8-3.23-13.89,18.81
		C236.65,425.15,245.77,430.48,256.3,434.98z"/>
</g>
</svg>
